<?xml version="1.0" encoding="UTF-8" standalone="no"?>
<!-- Created with Inkscape (http://www.inkscape.org/) -->

<svg
   width="1720.0049"
   height="542.88354"
   viewBox="0 0 1720.0049 542.88354"
   version="1.1"
   id="svg1"
   xml:space="preserve"
   xmlns:xlink="http://www.w3.org/1999/xlink"
   xmlns="http://www.w3.org/2000/svg"
   xmlns:svg="http://www.w3.org/2000/svg"><defs
     id="defs1"><color-profile
       name="Adobe-RGB-1998-D65-WP-2.2-Gamma"
       xlink:href="file:///C:/WINDOWS/system32/spool/drivers/color/Adobe%20RGB%20(1998)%20D65%20WP%202.2%20Gamma.icc"
       id="color-profile1" /></defs><g
     id="layer1"
     transform="translate(-1079.8909,-740.5184)"><path
       style="fill:#000000"
       d="m 1340.3458,1282.6422 c -0.5225,-0.4818 -8.375,-4.7002 -17.45,-9.374 -29.2297,-15.054 -48.1763,-24.8312 -62.5,-32.2523 -7.7,-3.9894 -21.65,-11.1887 -31,-15.9985 -21.4971,-11.0584 -42.6162,-21.986 -58,-30.0107 -13.0277,-6.7958 -27.9583,-14.5206 -59,-30.5257 -11.0001,-5.6715 -22.7001,-11.7096 -26.0001,-13.4179 l -6,-3.106 -0.2524,-203.71938 -0.2524,-203.71932 h 262.5024 262.5025 v 203.37752 c 0,161.51128 -0.2574,203.57988 -1.25,204.36038 -0.6875,0.5405 -10.7,5.8318 -22.25,11.7585 -11.55,5.9266 -25.5,13.1266 -31,16 -5.5,2.8733 -19,9.8492 -30,15.502 -28.0691,14.4243 -60.5846,31.2205 -91,47.0071 -18.6188,9.6637 -37.3357,19.3476 -58,30.0084 -9.9,5.1075 -20.4259,10.5688 -23.3908,12.1362 -5.9542,3.1478 -6.2919,3.2348 -7.6592,1.9737 z m 45.0726,-197.5118 c -5.2375,-22.4884 -9.5226,-41.057 -9.5226,-41.2634 0,-0.2065 1.6305,0.3058 3.6234,1.1385 1.993,0.8327 37.4305,11.5968 78.75,23.9202 99.926,29.8025 96.5136,28.8068 97.4169,28.4263 0.9344,-0.3936 -111.9152,-191.79858 -113.0939,-191.81938 -0.442,-0.01 -8.6974,6.3782 -18.3453,14.1912 -13.6488,11.0529 -17.7267,13.8824 -18.3752,12.75 -3.0896,-5.3951 -57.2516,-82.4554 -57.954,-82.4554 -1.0933,0 -62.0219,86.9284 -62.0219,88.4883 0,0.6235 6.1875,9.2285 13.75,19.1223 7.5625,9.8938 13.75,18.3253 13.75,18.7367 0,0.4113 -15.6375,14.416 -34.75,31.12158 -19.1125,16.7055 -34.7412,30.6341 -34.7304,30.9524 0.044,1.307 150.4995,89.9272 150.753,88.7957 0.1499,-0.6694 -4.0126,-19.6166 -9.25,-42.105 z M 1581.8958,929.51842 V 763.5184 h -239.5 -239.5001 l 0.023,159.75002 0.023,159.74998 2.0182,-3.5 c 1.11,-1.925 19.8935,-36.575 41.741,-77 l 39.7228,-73.49998 h 25.9303 25.9303 l 48.8088,-68 c 26.8448,-37.40002 49.173,-68.12192 49.6183,-68.27091 0.4453,-0.14898 16.5015,21.84064 35.6805,48.86582 19.179,27.02519 35.6326,50.07739 36.5636,51.22719 1.6738,2.0671 1.8532,1.9522 16.0665,-10.2903 7.9056,-6.8094 15.2753,-13.1765 16.3773,-14.1491 1.973,-1.7413 3.0548,-0.025 71,112.64 37.948,62.92458 69.109,114.42378 69.2465,114.44278 0.1375,0.019 0.25,-74.6655 0.25,-165.96548 z m 750.5,185.63828 c -2.75,-1.2882 -7.25,-4.3666 -10,-6.8408 -2.75,-2.4743 -6.8,-5.0768 -9,-5.7834 -7.152,-2.2971 -11.1425,-4.8225 -15.7921,-9.9941 -6.0688,-6.7499 -8.0905,-12.9253 -7.495,-22.8934 0.7303,-12.2231 6.5945,-21.1748 17.4828,-26.6878 5.3259,-2.6966 6.6695,-2.9388 16.3043,-2.9388 9.2397,0 11.1704,0.3144 16.0864,2.6198 7.101,3.33 12.4637,8.6927 15.7937,15.7937 3.5985,7.6734 3.6384,19.1961 0.092,26.5865 -2.7441,5.7184 -10.2958,13.563 -14.8876,15.465 -2.4462,1.0132 -2.8766,1.5806 -2.0003,2.6365 2.1621,2.6052 7.5854,2.791 11.64,0.3987 l 3.7563,-2.2163 3.7789,4.2582 c 3.6566,4.1205 3.7216,4.3226 2.0097,6.2493 -5.2784,5.9406 -18.7627,7.5658 -27.7691,3.3469 z m 0,-27.9089 c 7.7607,-4.3415 10.7115,-15.5296 6.429,-24.376 -5.8386,-12.0609 -23.3991,-11.9757 -29.6929,0.1442 -2.0111,3.8728 -2.0071,13.1445 0.01,17.0024 4.6415,8.8889 14.7005,12.0158 23.2566,7.2294 z m -591.0553,16.1925 c -15.7932,-2.0496 -27.207,-13.953 -28.2117,-29.4219 -0.5398,-8.3101 0.6634,-13.3683 4.6901,-19.7178 6.3425,-10.0011 18.0652,-15.3872 31.7639,-14.5942 13.5192,0.7826 23.163,6.797 29.0151,18.0954 2.2969,4.4346 2.7092,6.4908 2.7499,13.7166 0.041,7.3468 -0.3327,9.2752 -2.7582,14.2144 -6.4261,13.0862 -20.6729,19.8588 -37.2491,17.7075 z m 15.4195,-16.8253 c 6.8676,-4.8901 9.1077,-15.3916 5.0648,-23.7432 -5.8088,-11.9994 -23.4183,-11.9769 -29.6314,0.038 -1.9314,3.735 -1.9273,13.4952 0.01,17.215 1.8484,3.5539 5.3716,6.9268 8.6956,8.3247 4.0123,1.6873 12.2568,0.734 15.8637,-1.8344 z m 56.7577,16.736 c -6.9114,-0.932 -13.5116,-4.5103 -17.1724,-9.3098 -4.6432,-6.0877 -5.4495,-10.9973 -5.4495,-33.1818 v -20.341 h 8.5 8.5 l 0.024,17.75 c 0.027,19.8084 0.7341,24.4625 4.2538,27.9821 3.2114,3.2115 9.3534,4.0272 13.6384,1.8113 5.3861,-2.7853 6.084,-5.9983 6.084,-28.0113 v -19.5321 h 8.5676 8.5675 l -0.3175,22.75 -0.3176,22.75 -2.8169,4.7921 c -5.9954,10.1997 -17.1286,14.5544 -32.0612,12.5405 z m 201.9047,-0.023 c -11.6262,-1.5446 -21.2086,-8.4709 -25.8536,-18.6873 -1.61,-3.5411 -2.1005,-6.6108 -2.0968,-13.1224 0,-7.2859 0.3918,-9.2451 2.7142,-13.7166 3.5875,-6.9074 8.7946,-11.9614 15.6231,-15.1636 4.9211,-2.3078 6.8371,-2.6189 16.0865,-2.612 11.7036,0.01 16.1415,1.4976 23.6679,7.94 6.3755,5.4571 9.6399,12.5872 10.1419,22.1515 0.3806,7.251 0.128,8.7892 -2.3509,14.3129 -6.2942,14.0252 -20.676,21.1901 -37.9323,18.8975 z m 15.2648,-16.4874 c 6.7434,-4.9949 9.1795,-12.6899 6.6809,-21.1034 -4.2719,-14.3852 -23.9279,-16.2379 -30.4014,-2.8655 -4.8541,10.0273 -0.7394,21.9991 8.9291,25.9788 3.0255,1.2454 12.0526,0.019 14.7914,-2.0099 z m 60.0086,16.5326 c -10.5437,-1.4252 -20.3243,-8.1366 -24.9659,-17.1315 -3.0209,-5.854 -3.7087,-18.5744 -1.3829,-25.5766 2.2496,-6.773 9.1599,-14.3175 16.3461,-17.8465 5.1466,-2.5272 6.7266,-2.8003 16.2027,-2.8003 9.4491,0 11.0646,0.2772 16.1415,2.7704 11.6166,5.7048 18.2356,16.1442 18.2959,28.8562 0.032,6.7756 -0.3529,8.3895 -3.4506,14.4624 -6.724,13.1819 -20.4055,19.5343 -37.1868,17.2659 z m 13.7954,-15.7588 c 10.6449,-4.8344 12.5973,-21.172 3.5112,-29.3809 -8.6799,-7.8417 -21.2029,-5.0785 -26.2166,5.7848 -2.4835,5.3809 -2.341,9.9896 0.4972,16.0849 3.9444,8.4709 13.2012,11.6017 22.2082,7.5112 z m 286.0265,15.7365 c -6.8461,-0.9232 -13.5056,-4.5025 -17.0684,-9.1736 -4.9102,-6.4375 -5.5535,-10.2357 -5.5535,-32.7848 v -20.8742 h 8.4262 8.4263 l 0.3454,20.25 c 0.2412,14.1368 0.742,21.0303 1.6589,22.8347 4.3673,8.5939 18.5273,7.3962 21.0762,-1.7827 0.5807,-2.0911 1.0583,-12.2395 1.0614,-22.552 l 0.01,-18.75 h 8.5687 8.5687 l -0.3187,22.2814 c -0.3094,21.6253 -0.394,22.4275 -2.8733,27.2408 -5.4698,10.6185 -17.0191,15.3744 -32.3235,13.3104 z m -517.6219,-24.8326 v -24 h -9.5 -9.5 v -7 -7 h 28 28 v 7 7 h -9.5 -9.5 v 24 24 h -9 -9 z m 44,-6.9263 v -31.0737 h 17.2899 c 23.8728,0 31.4087,2.1981 39.6275,11.5587 5.0967,5.8049 6.452,9.8471 6.5183,19.4413 0.046,6.6391 -0.4054,9.5047 -2.0612,13.0894 -2.8329,6.1328 -8.4838,11.5999 -15.2881,14.7908 -5.3569,2.5121 -6.4186,2.6331 -25.8364,2.9435 l -20.25,0.3237 z m 37.9959,14.8084 c 5.6566,-3.1792 8.3327,-8.6612 7.8031,-15.9842 -0.784,-10.8384 -7.4708,-15.8979 -21.0109,-15.8979 h -7.7881 v 17 17 h 8.6138 c 6.9208,0 9.3545,-0.4163 12.3821,-2.1179 z m 186.0041,-14.9741 v -31.0921 l 19.25,0.3781 c 20.9184,0.4109 24.3096,1.1549 30.1261,6.609 9.9162,9.2986 8.5401,27.2927 -2.6133,34.1715 l -2.7372,1.6881 6.0514,8.8682 c 3.3283,4.8775 6.2741,9.2284 6.5462,9.6687 0.2721,0.4402 -3.75,0.8005 -8.9382,0.8005 h -9.4329 l -5.2521,-8 -5.2522,-8 h -4.8739 -4.8739 v 8 8 h -9 -9 z m 36.0979,-1.7807 c 2.797,-3.4542 2.5295,-9.5908 -0.5525,-12.6728 -2.1723,-2.1723 -3.3221,-2.4545 -10,-2.4545 h -7.5454 v 9.1059 9.1058 l 8.0979,-0.3677 c 7.0503,-0.3202 8.3441,-0.6716 10,-2.7167 z m 55.9021,1.8727 v -31 h 24.5456 24.5457 l -0.2957,6.75 -0.2956,6.75 -15.75,0.2754 -15.75,0.2754 v 4.9746 4.9746 h 14 14 v 6.4718 6.4717 l -13.75,0.2783 -13.75,0.2782 v 5.5 5.5 l 16.25,0.2747 16.25,0.2748 v 6.4752 6.4753 h -25 -25 z m 205,0 v -31 h 9 9 v 31 31 h -9 -9 z m 31,-0.078 v -31.078 l 18.75,0.328 c 18.2709,0.3195 18.8982,0.4006 24.5509,3.1764 16.4193,8.0624 16.5049,31.2176 0.1449,39.2217 -4.7613,2.3296 -7.3004,2.8405 -16.0509,3.2296 l -10.3949,0.4623 v 7.869 7.8689 h -8.5 -8.5 z m 35.0769,-1.8452 c 1.995,-1.995 2.9231,-3.9244 2.9231,-6.0769 0,-2.1525 -0.9281,-4.0819 -2.9231,-6.0769 -2.7164,-2.7164 -3.4589,-2.9231 -10.5,-2.9231 h -7.5769 v 9 9 h 7.5769 c 7.0411,0 7.7836,-0.2067 10.5,-2.9231 z m 28.9231,1.9231 v -31 h 7.4361 7.4362 l 6.7773,11.25 c 3.7276,6.1875 8.6551,14.2962 10.95,18.0193 l 4.1726,6.7693 10.6614,-18.0193 10.6615,-18.0193 h 7.4524 7.4525 v 31 31 h -8 -8 l -0.07,-13.75 c -0.039,-7.5625 -0.4069,-14.6082 -0.8182,-15.6572 -0.5975,-1.5235 -2.2343,0.6384 -8.1386,10.75 l -7.3906,12.6572 h -4.0713 -4.0713 l -7.4699,-12.1879 -7.4698,-12.1879 -0.2761,15.1879 -0.276,15.1879 h -8.474 -8.4739 z m 85,0 v -31 h 24.5 24.5 v 7 7 h -15.5 -15.5 v 5 5 h 13.5 13.5 v 6.5 6.5 h -13.5 -13.5 v 6 6 h 16 16 v 6.5 6.5 h -25 -25 z m 60,0 v -31 h 7.3761 7.3762 l 13.3738,16.2305 13.3739,16.2304 0.2747,-16.2304 0.2748,-16.2305 h 8.4752 8.4753 v 31 31 l -7.25,-0.047 -7.25,-0.047 -13,-15.9162 c -7.15,-8.754 -13.3375,-15.9326 -13.75,-15.9526 -0.4125,-0.02 -0.75,7.1636 -0.75,15.9636 v 16 h -8.5 -8.5 z m 85,7 v -24 h -9.5 -9.5 v -7 -7 h 28 28 v 7 7 h -9.5 -9.5 v 24 24 h -9 -9 z m -606.5,-71.6561 c -8.1396,-1.2977 -19.842,-4.8929 -27.3436,-8.40048 -37.4347,-17.504 -56.7151,-56.5345 -48.2324,-97.6398 9.3595,-45.3534 54.784,-74.73114 105.6783,-68.34599 39.2194,4.92043 67.948,29.24799 78.1329,66.16339 2.4822,8.9968 2.412,33.7127 -0.1218,42.8766 -4.0978,14.8205 -10.7509,26.9305 -20.4357,37.1968 -8.1982,8.6906 -16.4812,14.6746 -27.3342,19.7477 -13.8779,6.48698 -21.9208,8.17058 -40.8435,8.54958 -9.075,0.1817 -17.85,0.1152 -19.5,-0.1478 z m 25.0663,-39.42768 c 16.5418,-3.0214 28.926,-14.0473 34.6032,-30.8077 3.1995,-9.4455 3.2092,-23.9431 0.023,-33.6085 -4.4002,-13.3466 -14.025,-23.9753 -25.8485,-28.5446 -8.6636,-3.3482 -22.1029,-3.8308 -31.0443,-1.115 -16.7452,5.0862 -27.3522,17.4472 -31.0417,36.1746 -5.2874,26.8379 9.7109,52.1935 33.9935,57.4685 7.8591,1.7073 11.8478,1.7966 19.3152,0.4327 z m 508.9337,38.68638 c -15.5744,-2.5612 -32.2187,-8.04878 -42.0996,-13.88028 l -5.0996,-3.0097 7.4119,-16.6063 c 4.0766,-9.1335 7.7347,-16.9347 8.1293,-17.336 0.3945,-0.4013 4.544,1.1909 9.2212,3.5383 16.9522,8.5079 33.5617,12.2358 50.9368,11.4325 15.887,-0.7345 23.0579,-4.8013 23.2963,-13.2118 0.2126,-7.499 -6.5158,-12.0207 -24.0424,-16.1573 -38.4031,-9.0638 -49.5868,-13.4927 -59.6423,-23.6188 -7.406,-7.4581 -10.3374,-13.3148 -11.8138,-23.6034 -3.0617,-21.3374 7.7496,-41.4484 27.9245,-51.94459 22.4827,-11.69677 56.6659,-13.29764 87.078,-4.07804 9.0679,2.749 20.1997,7.90108 20.1997,9.34897 0,1.3931 -12.8907,32.67066 -13.9272,33.79256 -0.3906,0.4228 -4.2258,-0.8556 -8.5227,-2.8409 -23.927,-11.0549 -53.611,-11.9562 -62.444,-1.896 -2.5044,2.8524 -3.1061,4.422 -3.1061,8.1018 0,8.5557 5.411,11.3808 34,17.7508 18.7732,4.183 30.4765,8.0322 39.1233,12.8678 21.4018,11.9686 28.4673,36.4652 17.2616,59.8475 -6.7472,14.0791 -21.4663,24.89 -40.8849,30.02918 -10.1766,2.6933 -40.4627,3.5354 -53,1.4737 z m -977.5,-86.15518 v -84.55251 l 48.75,0.34034 c 46.6439,0.32564 49.0903,0.43557 56.6281,2.54441 11.8302,3.30971 21.3372,8.3082 28.7887,15.13616 11.8328,10.8426 17.4113,22.7073 18.481,39.3066 1.4764,22.9093 -7.3195,42.0473 -24.6416,53.6146 -3.2796,2.19 -6.4936,4.1587 -7.1421,4.3749 -0.6739,0.2247 6.3054,11.2954 16.2908,25.8406 9.6084,13.9961 17.8059,26.00998 18.2165,26.69748 0.5894,0.9868 -4.6235,1.25 -24.7615,1.25 h -25.5081 l -15.3009,-22.48438 -15.3009,-22.4843 -13.25,-0.016 -13.25,-0.016 v 22.5 22.49998 h -24 -24 z m 90.4875,-0.2659 c 8.425,-3.85 11.6052,-7.8527 13.5891,-17.1032 2.4107,-11.2408 -2.8602,-22.231 -12.896,-26.8891 -5.3742,-2.4945 -6.692,-2.6574 -24.4306,-3.0208 l -18.75,-0.3841 v 25.2015 25.2015 l 18.75,-0.3633 c 16.9421,-0.3283 19.2308,-0.5831 23.7375,-2.6425 z m 88.5125,0.3185 V 835.5182 h 24 24 v 31.50002 31.5 h 33 33 v -31.5 -31.50002 h 24 24 v 84.50002 84.49998 h -24 -24 v -32.99998 -33 h -33 -33 v 33 32.99998 h -24 -24 z m 400,0 V 835.5182 h 47.369 c 50.8741,0 56.8338,0.44604 71.131,5.32367 30.792,10.50505 50.5944,33.36705 55.5592,64.14355 1.5254,9.4559 0.677,29.6585 -1.5972,38.0328 -7.8283,28.8263 -30.9674,50.4349 -61.962,57.86358 -12.8997,3.0918 -21.7686,3.5745 -66.25,3.6055 l -44.25,0.031 z m 97.711,43.2995 c 9.4416,-3.3676 16.2434,-8.4816 21.2474,-15.9752 5.7105,-8.5516 7.4894,-15.1494 7.5018,-27.8243 0.019,-19.367 -7.4777,-32.9078 -22.4075,-40.4733 -9.2016,-4.6628 -14.8702,-5.5267 -36.2628,-5.5267 h -19.7899 v 46.6117 46.6117 l 21.25,-0.426 c 19.6935,-0.3947 21.7781,-0.6143 28.461,-2.9979 z m 102.289,-43.2995 V 835.5182 h 66.5 66.5 v 18.00002 18 h -42.5 -42.5 v 14.5 14.5 h 37.5 37.5 v 18 18 h -37.5 -37.5 v 15.5 15.5 h 44 44 v 18.5 18.49998 h -68 -68 z"
       id="path1" /></g></svg>
